# xmcd
#
# Track frame offsets:
#	150
#	11612
#	29005
#	39317
#	49925
#	66570
#	78435
#	89920
#	103915
#	120777
#	133025
#	147567
#	163537
#
# Disc length: 2352
#
# Revision: 2
# Processed by: cddbd v1.5.1PL0 Copyright (c) Steve Scherf et al.
# Submitted via: audiograbber 1.80
# Normalized: r0:DSETVAR1,TSWAP
#
DISCID=ba092e0d
DTITLE=Various Artist - The Very Best Of Country Music
DYEAR=1900
DGENRE=
TTITLE0=Willie Nelson - On The Road Again
TTITLE1=Ricky Skaggs - Country Boy
TTITLE2=Lacy J. Dalton - Silver Eagle
TTITLE3=Moe Bandy and Joe Stampley - Hey Joe (Hey Moe)
TTITLE4=Asleep At The Wheel - I Want A New Drug
TTITLE5=Bobby Goldsboro - The Spirit Of The West
TTITLE6=George Jones - The One I Loved Back Then (The Corvette Song)
TTITLE7=Sunset Town - Sweethearts Of The Rodeo - Midnight Girl
TTITLE8=Lacy J. Dalton - Over You
TTITLE9=Herb Pedersen - Paperback Writer
TTITLE10=Johnny Cash - The Reverend Mr. Black
TTITLE11=Merle Haggard - Reasons To Quit
TTITLE12=Marty Robbins - Tie Your Dreams To Mine
EXTD=
EXTT0=
EXTT1=
EXTT2=
EXTT3=
EXTT4=
EXTT5=
EXTT6=
EXTT7=
EXTT8=
EXTT9=
EXTT10=
EXTT11=
EXTT12=
PLAYORDER=
